<svg xmlns="http://www.w3.org/2000/svg" width="329.415" height="37.716" viewBox="0 0 329.415 37.716" class="emira-logo"><g id="Group_11" data-name="Group 11" transform="translate(-64.087 -71.708)"><rect id="Rectangle_32" data-name="Rectangle 32" width="5.579" height="36.052" transform="translate(228.381 72.54)"></rect> <path id="Path_53" data-name="Path 53" d="M297.749,73.51h-.164v.008a5.532,5.532,0,0,0-3.648,1.505l-29.63,27.916L234.727,75.028a5.54,5.54,0,0,0-3.577-1.506V73.51h-5.579V96.739a5.513,5.513,0,0,0,1.718,4l3.861,3.665V79.094l31.916,30.115,1.242,1.185,1.237-1.185,32.04-30.189v30.542h5.579V73.51h-5.415Z" transform="translate(-86.951 -0.97)"></path> <path id="Path_54" data-name="Path 54" d="M648.739,72.893,647.5,71.708l-1.237,1.185-37.888,35.7h5.684a5.538,5.538,0,0,0,3.811-1.513L647.5,79.162l29.581,27.912a5.546,5.546,0,0,0,3.82,1.518h5.674Z" transform="translate(-293.071 0)"></path> <path id="Path_55" data-name="Path 55" d="M105.743,75.043a5.6,5.6,0,0,0-3.859-1.533h-37.8v5.16h45.5Z" transform="translate(0 -0.97)"></path> <path id="Path_56" data-name="Path 56" d="M134.625,140.442H64.087v5.16h78.239l-3.842-3.626A5.6,5.6,0,0,0,134.625,140.442Z" transform="translate(0 -37.01)"></path> <path id="Path_57" data-name="Path 57" d="M122.113,108.509a5.6,5.6,0,0,0-3.858-1.533H64.087v5.16h61.87Z" transform="translate(0 -18.99)"></path> <path id="Path_58" data-name="Path 58" d="M523.605,73.4H458.5v5.21H514.35L503.408,88.9H458.5V109.5h5.579V94.058h37.206l13,13.847a5.233,5.233,0,0,0,3.813,1.649h5.394l-15.88-16.891,17.2-16.225A1.756,1.756,0,0,0,523.605,73.4Z" transform="translate(-212.371 -0.912)"></path></g></svg>