<?xml version="1.0" encoding="utf-8"?>
<!-- Generator: Adobe Illustrator 16.0.3, SVG Export Plug-In . SVG Version: 6.00 Build 0)  -->
<!DOCTYPE svg PUBLIC "-//W3C//DTD SVG 1.1//EN" "http://www.w3.org/Graphics/SVG/1.1/DTD/svg11.dtd">
<svg version="1.1" id="Artwork" xmlns="http://www.w3.org/2000/svg" xmlns:xlink="http://www.w3.org/1999/xlink" x="0px" y="0px"
	 width="504.57px" height="544.252px" viewBox="0 0 504.57 544.252" enable-background="new 0 0 504.57 544.252"
	 xml:space="preserve">
<g>
	<path d="M252.238,5.12c-97.51,0-176.532,79.022-176.532,176.532c0,97.51,79.022,176.533,176.532,176.533
		s176.533-79.022,176.533-176.533C428.771,84.142,349.748,5.12,252.238,5.12z M252.238,350.6
		c-93.291,0-168.948-75.657-168.948-168.948c0-93.291,75.657-168.948,168.948-168.948c93.338,0,168.948,75.657,168.948,168.948
		C421.186,274.942,345.576,350.6,252.238,350.6z"/>
	<path d="M249.725,113.201v-6.021h-0.853c-2.417,0-4.646,0.901-6.399,2.607l-14.648,14.648h10.666
		C239.534,118.747,244.037,114.244,249.725,113.201z"/>
	<path d="M270.062,138.135c0-4.741-3.888-8.627-8.628-8.627h-6.684v6.067c0.759-0.237,1.518-0.569,2.181-0.995h7.016
		c-2.038,3.176-5.356,5.451-9.243,6.162v5.973h6.684C266.174,146.715,270.062,142.828,270.062,138.135z"/>
	<path d="M243.326,126.995c0,4.029,2.702,7.49,6.399,8.58v-17.16C246.028,119.505,243.326,122.918,243.326,126.995z"/>
	<path d="M270.062,115.855c0-4.741-3.888-8.628-8.628-8.628h-6.684v6.021c3.84,0.711,7.158,2.986,9.244,6.163h-7.016
		c-0.664-0.427-1.422-0.758-2.182-0.996v6.068h6.637C266.174,124.436,270.062,120.596,270.062,115.855z"/>
	<path d="M384.732,183.737c0,0-74.33-87.081-92.012-104.762l-0.047-0.047l0,0c-10.382-10.382-24.65-16.781-40.436-16.781
		s-30.149,6.399-40.53,16.781c0,0,0,0-0.047,0.047c-17.777,17.587-91.917,104.762-91.917,104.762
		c-6.021,7.775-9.623,17.54-9.623,28.158c0,1.85,0.095,3.65,0.332,5.404c1.564,13.416,8.912,25.076,19.53,32.424
		c0,0,31.287,24.366,122.586,24.366c91.348,0,121.923-24.366,121.923-24.366c10.382-7.205,17.682-18.582,19.436-31.713
		c0.285-1.99,0.428-4.029,0.428-6.115C394.355,201.277,390.752,191.56,384.732,183.737z M171.698,235.171h-33.799v-46.313h10.05
		v36.596h24.934L171.698,235.171z M201.752,235.882c-13.226,0-23.939-10.713-23.939-23.938s10.713-23.938,23.939-23.938
		s23.939,10.713,23.939,23.938S214.978,235.882,201.752,235.882z M257.263,198.48v36.69h-10.05v-36.69h-14.932l1.185-9.671h37.639
		l1.185,9.671H257.263z M252.238,166.293c-17.919,0-33.088-11.993-37.781-28.442l-13.7,13.7h-7.158l19.625-19.625
		c-0.189-1.612-0.284-3.271-0.284-4.93c0-21.711,17.587-39.298,39.298-39.298c16.402,0,30.481,10.05,36.359,24.366h-5.546
		c-5.547-11.424-17.256-19.293-30.813-19.293c-18.914,0-34.226,15.312-34.226,34.226c0,0.047,0,0.095,0,0.095l20.905-20.905
		c2.702-2.607,6.21-4.029,9.908-4.029h12.609c7.537,0,13.652,6.115,13.652,13.652c0,4.598-2.275,8.675-5.783,11.14
		c3.461,2.465,5.783,6.542,5.783,11.14c0,7.537-6.115,13.652-13.652,13.652h-11.708v-10.998
		c-5.688-1.042-10.191-5.546-11.234-11.234H222.8l-4.124,4.124l0,0c3.081,15.738,16.971,27.637,33.609,27.637
		c13.463,0,25.124-7.774,30.718-19.104h5.499C282.576,156.338,268.545,166.293,252.238,166.293z M324.055,215.262
		c0,11.377-9.244,20.62-20.621,20.62s-20.62-9.243-20.62-20.62v-26.12h10.002v8.438v17.683l0,0c0,5.878,4.741,10.618,10.618,10.618
		c5.879,0,10.619-4.74,10.619-10.618l0,0v-17.683v-8.722h10.002V215.262z M369.895,228.771c-1.422,2.181-3.556,3.888-6.352,5.167
		c-2.845,1.28-6.258,1.896-10.335,1.896c-3.508,0-6.921-0.475-10.191-1.47c-2.655-0.806-4.835-1.802-6.637-2.986l1.185-9.765
		l1.043,0.853c1.896,1.47,4.172,2.607,6.779,3.508c2.607,0.901,5.262,1.327,7.869,1.327c2.939,0,5.072-0.426,6.447-1.375
		c1.374-0.9,2.085-2.085,2.085-3.602c0-1.091-0.427-1.992-1.232-2.75c-0.806-0.711-1.896-1.327-3.176-1.754s-3.034-0.9-5.214-1.47
		c-3.366-0.853-6.163-1.659-8.297-2.513c-2.133-0.853-3.981-2.18-5.546-4.029c-1.564-1.848-2.323-4.313-2.323-7.395
		c0-2.702,0.711-5.119,2.086-7.301c1.375-2.18,3.508-3.887,6.305-5.166c2.797-1.28,6.258-1.896,10.287-1.896
		c2.844,0,5.594,0.332,8.296,1.043s5.072,1.706,7.11,3.033l-3.176,8.106c-4.077-2.417-8.201-3.603-12.277-3.603
		c-2.893,0-4.979,0.475-6.353,1.469c-1.375,0.949-2.038,2.229-2.038,3.84c0,1.612,0.806,2.75,2.369,3.508
		c1.564,0.76,3.982,1.518,7.254,2.275c3.365,0.854,6.162,1.66,8.295,2.514c2.133,0.853,3.982,2.133,5.547,3.934
		c1.564,1.802,2.322,4.219,2.322,7.301C372.027,224.173,371.316,226.591,369.895,228.771z"/>
	<circle cx="201.752" cy="211.896" r="14.411"/>
</g>
</svg>
